<?xml version="1.0" encoding="UTF-8" standalone="no"?>
<!DOCTYPE svg PUBLIC "-//W3C//DTD SVG 1.1//EN"
 "http://www.w3.org/Graphics/SVG/1.1/DTD/svg11.dtd">
<!-- Generated by graphviz version 2.43.0 (0)
 -->
<!-- Title: service_graph Pages: 1 -->
<svg width="1725pt" height="512pt"
 viewBox="0.00 0.00 1725.00 512.31" xmlns="http://www.w3.org/2000/svg" xmlns:xlink="http://www.w3.org/1999/xlink">
<g id="graph0" class="graph" transform="scale(1 1) rotate(0) translate(4 508.31)">
<title>service_graph</title>
<polygon fill="white" stroke="transparent" points="-4,4 -4,-508.31 1721,-508.31 1721,4 -4,4"/>
<!-- frontend -->
<g id="node1" class="node">
<title>frontend</title>
<polygon fill="#efefef" stroke="black" points="78,-275 0,-275 0,-239 78,-239 78,-275"/>
<text text-anchor="middle" x="39" y="-253.3" font-family="Times,serif" font-size="14.00">frontend</text>
</g>
<!-- api_gateway -->
<g id="node2" class="node">
<title>api_gateway</title>
<polygon fill="#efefef" stroke="black" points="367,-275 262,-275 262,-239 367,-239 367,-275"/>
<text text-anchor="middle" x="314.5" y="-253.3" font-family="Times,serif" font-size="14.00">api_gateway</text>
</g>
<!-- frontend&#45;&gt;api_gateway -->
<g id="edge1" class="edge">
<title>frontend&#45;&gt;api_gateway</title>
<path fill="none" stroke="black" d="M78.03,-257C122.98,-257 198.41,-257 251.77,-257"/>
<polygon fill="black" stroke="black" points="251.8,-260.5 261.8,-257 251.8,-253.5 251.8,-260.5"/>
<text text-anchor="middle" x="170" y="-260.8" font-family="Times,serif" font-size="14.00">HTTP (API requests)</text>
</g>
<!-- user_service -->
<g id="node3" class="node">
<title>user_service</title>
<polygon fill="#efefef" stroke="black" points="944,-483 838,-483 838,-447 944,-447 944,-483"/>
<text text-anchor="middle" x="891" y="-461.3" font-family="Times,serif" font-size="14.00">user_service</text>
</g>
<!-- api_gateway&#45;&gt;user_service -->
<g id="edge2" class="edge">
<title>api_gateway&#45;&gt;user_service</title>
<path fill="none" stroke="black" d="M316.37,-275.09C319.24,-312.52 331.63,-398.18 385,-437 517.46,-533.35 725.01,-504.15 827.89,-481.21"/>
<polygon fill="black" stroke="black" points="828.85,-484.59 837.82,-478.95 827.29,-477.76 828.85,-484.59"/>
<text text-anchor="middle" x="432.5" y="-486.8" font-family="Times,serif" font-size="14.00">proxy /auth</text>
</g>
<!-- wallet_service -->
<g id="node4" class="node">
<title>wallet_service</title>
<polygon fill="#efefef" stroke="black" points="1708.5,-441 1590.5,-441 1590.5,-405 1708.5,-405 1708.5,-441"/>
<text text-anchor="middle" x="1649.5" y="-419.3" font-family="Times,serif" font-size="14.00">wallet_service</text>
</g>
<!-- api_gateway&#45;&gt;wallet_service -->
<g id="edge3" class="edge">
<title>api_gateway&#45;&gt;wallet_service</title>
<path fill="none" stroke="black" d="M319.39,-275.03C326.7,-304.25 345.49,-361.44 385,-389 426.55,-417.98 447.48,-400.24 498,-404 710.18,-419.78 1365.81,-422.45 1580.02,-422.91"/>
<polygon fill="black" stroke="black" points="1580.18,-426.41 1590.18,-422.93 1580.19,-419.41 1580.18,-426.41"/>
<text text-anchor="middle" x="891" y="-421.8" font-family="Times,serif" font-size="14.00">proxy /wallet</text>
</g>
<!-- marketplace_service -->
<g id="node5" class="node">
<title>marketplace_service</title>
<polygon fill="#efefef" stroke="black" points="700.5,-395 537.5,-395 537.5,-359 700.5,-359 700.5,-395"/>
<text text-anchor="middle" x="619" y="-373.3" font-family="Times,serif" font-size="14.00">marketplace_service</text>
</g>
<!-- api_gateway&#45;&gt;marketplace_service -->
<g id="edge4" class="edge">
<title>api_gateway&#45;&gt;marketplace_service</title>
<path fill="none" stroke="black" d="M325.38,-275.21C336.95,-294.65 358.02,-324.71 385,-340 427.9,-364.31 481.98,-373.94 527.24,-377.32"/>
<polygon fill="black" stroke="black" points="527.14,-380.82 537.35,-377.98 527.6,-373.83 527.14,-380.82"/>
<text text-anchor="middle" x="432.5" y="-373.8" font-family="Times,serif" font-size="14.00">proxy /assets</text>
</g>
<!-- trading_service -->
<g id="node6" class="node">
<title>trading_service</title>
<polygon fill="#efefef" stroke="black" points="1206,-370 1079,-370 1079,-334 1206,-334 1206,-370"/>
<text text-anchor="middle" x="1142.5" y="-348.3" font-family="Times,serif" font-size="14.00">trading_service</text>
</g>
<!-- api_gateway&#45;&gt;trading_service -->
<g id="edge5" class="edge">
<title>api_gateway&#45;&gt;trading_service</title>
<path fill="none" stroke="black" d="M343.11,-275.09C355.43,-282.25 370.43,-289.77 385,-294 449.53,-312.76 891.85,-338.46 1068.68,-348.12"/>
<polygon fill="black" stroke="black" points="1068.75,-351.63 1078.93,-348.68 1069.13,-344.64 1068.75,-351.63"/>
<text text-anchor="middle" x="619" y="-330.8" font-family="Times,serif" font-size="14.00">proxy /trade</text>
</g>
<!-- portfolio_service -->
<g id="node7" class="node">
<title>portfolio_service</title>
<polygon fill="#efefef" stroke="black" points="1717,-332 1582,-332 1582,-296 1717,-296 1717,-332"/>
<text text-anchor="middle" x="1649.5" y="-310.3" font-family="Times,serif" font-size="14.00">portfolio_service</text>
</g>
<!-- api_gateway&#45;&gt;portfolio_service -->
<g id="edge6" class="edge">
<title>api_gateway&#45;&gt;portfolio_service</title>
<path fill="none" stroke="black" d="M367.05,-264.29C373.09,-264.96 379.18,-265.56 385,-266 907.62,-305.93 1044.15,-227.05 1564,-294 1566.55,-294.33 1569.14,-294.7 1571.74,-295.11"/>
<polygon fill="black" stroke="black" points="1571.4,-298.61 1581.86,-296.87 1572.6,-291.71 1571.4,-298.61"/>
<text text-anchor="middle" x="891" y="-281.8" font-family="Times,serif" font-size="14.00">proxy /portfolio</text>
</g>
<!-- USER_SERVICE_URL -->
<g id="node8" class="node">
<title>USER_SERVICE_URL</title>
<polygon fill="#efefef" stroke="black" points="704,-252 534,-252 534,-216 704,-216 704,-252"/>
<text text-anchor="middle" x="619" y="-230.3" font-family="Times,serif" font-size="14.00">USER_SERVICE_URL</text>
</g>
<!-- api_gateway&#45;&gt;USER_SERVICE_URL -->
<g id="edge12" class="edge">
<title>api_gateway&#45;&gt;USER_SERVICE_URL</title>
<path fill="none" stroke="black" d="M367.11,-252.47C373.14,-251.96 379.21,-251.46 385,-251 430.66,-247.36 481.39,-243.63 523.82,-240.59"/>
<polygon fill="black" stroke="black" points="524.13,-244.07 533.86,-239.87 523.63,-237.09 524.13,-244.07"/>
<text text-anchor="middle" x="432.5" y="-254.8" font-family="Times,serif" font-size="14.00">env var</text>
</g>
<!-- WALLET_SERVICE_URL -->
<g id="node9" class="node">
<title>WALLET_SERVICE_URL</title>
<polygon fill="#efefef" stroke="black" points="713,-198 525,-198 525,-162 713,-162 713,-198"/>
<text text-anchor="middle" x="619" y="-176.3" font-family="Times,serif" font-size="14.00">WALLET_SERVICE_URL</text>
</g>
<!-- api_gateway&#45;&gt;WALLET_SERVICE_URL -->
<g id="edge13" class="edge">
<title>api_gateway&#45;&gt;WALLET_SERVICE_URL</title>
<path fill="none" stroke="black" d="M352.05,-238.85C362.51,-234.17 374.04,-229.48 385,-226 426.75,-212.75 473.98,-202.58 514.95,-195.21"/>
<polygon fill="black" stroke="black" points="515.71,-198.63 524.95,-193.44 514.49,-191.73 515.71,-198.63"/>
<text text-anchor="middle" x="432.5" y="-229.8" font-family="Times,serif" font-size="14.00">env var</text>
</g>
<!-- MARKETPLACE_SERVICE_URL -->
<g id="node10" class="node">
<title>MARKETPLACE_SERVICE_URL</title>
<polygon fill="#efefef" stroke="black" points="740,-144 498,-144 498,-108 740,-108 740,-144"/>
<text text-anchor="middle" x="619" y="-122.3" font-family="Times,serif" font-size="14.00">MARKETPLACE_SERVICE_URL</text>
</g>
<!-- api_gateway&#45;&gt;MARKETPLACE_SERVICE_URL -->
<g id="edge14" class="edge">
<title>api_gateway&#45;&gt;MARKETPLACE_SERVICE_URL</title>
<path fill="none" stroke="black" d="M327.98,-238.72C340.48,-221.8 361.24,-197.18 385,-183 416.05,-164.47 452.85,-151.95 487.91,-143.5"/>
<polygon fill="black" stroke="black" points="488.8,-146.88 497.75,-141.22 487.22,-140.06 488.8,-146.88"/>
<text text-anchor="middle" x="432.5" y="-186.8" font-family="Times,serif" font-size="14.00">env var</text>
</g>
<!-- TRADING_SERVICE_URL -->
<g id="node11" class="node">
<title>TRADING_SERVICE_URL</title>
<polygon fill="#efefef" stroke="black" points="717.5,-90 520.5,-90 520.5,-54 717.5,-54 717.5,-90"/>
<text text-anchor="middle" x="619" y="-68.3" font-family="Times,serif" font-size="14.00">TRADING_SERVICE_URL</text>
</g>
<!-- api_gateway&#45;&gt;TRADING_SERVICE_URL -->
<g id="edge15" class="edge">
<title>api_gateway&#45;&gt;TRADING_SERVICE_URL</title>
<path fill="none" stroke="black" d="M320.15,-238.97C328.36,-210.87 348.13,-156.84 385,-128 420.57,-100.17 467.86,-85.88 510.54,-78.64"/>
<polygon fill="black" stroke="black" points="511.1,-82.09 520.43,-77.07 510,-75.18 511.1,-82.09"/>
<text text-anchor="middle" x="432.5" y="-131.8" font-family="Times,serif" font-size="14.00">env var</text>
</g>
<!-- PORTFOLIO_SERVICE_URL -->
<g id="node12" class="node">
<title>PORTFOLIO_SERVICE_URL</title>
<polygon fill="#efefef" stroke="black" points="726.5,-36 511.5,-36 511.5,0 726.5,0 726.5,-36"/>
<text text-anchor="middle" x="619" y="-14.3" font-family="Times,serif" font-size="14.00">PORTFOLIO_SERVICE_URL</text>
</g>
<!-- api_gateway&#45;&gt;PORTFOLIO_SERVICE_URL -->
<g id="edge16" class="edge">
<title>api_gateway&#45;&gt;PORTFOLIO_SERVICE_URL</title>
<path fill="none" stroke="black" d="M316.51,-238.88C319.67,-200.84 332.56,-112.41 385,-67 416.9,-39.38 460.41,-25.99 501.19,-19.88"/>
<polygon fill="black" stroke="black" points="501.78,-23.33 511.22,-18.52 500.84,-16.4 501.78,-23.33"/>
<text text-anchor="middle" x="432.5" y="-70.8" font-family="Times,serif" font-size="14.00">env var</text>
</g>
<!-- user_service&#45;&gt;wallet_service -->
<g id="edge7" class="edge">
<title>user_service&#45;&gt;wallet_service</title>
<path fill="none" stroke="black" d="M944.01,-465C1057.1,-464.52 1333.73,-460.78 1564,-437 1569.36,-436.45 1574.9,-435.77 1580.46,-435.01"/>
<polygon fill="black" stroke="black" points="1581.04,-438.47 1590.44,-433.58 1580.05,-431.54 1581.04,-438.47"/>
<text text-anchor="middle" x="1142.5" y="-466.8" font-family="Times,serif" font-size="14.00">create wallet (POST /wallet)</text>
</g>
<!-- marketplace_service&#45;&gt;trading_service -->
<g id="edge8" class="edge">
<title>marketplace_service&#45;&gt;trading_service</title>
<path fill="none" stroke="black" d="M700.63,-373.13C801.28,-368.31 971.95,-360.13 1068.76,-355.49"/>
<polygon fill="black" stroke="black" points="1068.94,-358.98 1078.76,-355.01 1068.6,-351.99 1068.94,-358.98"/>
<text text-anchor="middle" x="891" y="-373.8" font-family="Times,serif" font-size="14.00">create pool (POST /trade/create&#45;pool)</text>
</g>
<!-- trading_service&#45;&gt;wallet_service -->
<g id="edge9" class="edge">
<title>trading_service&#45;&gt;wallet_service</title>
<path fill="none" stroke="black" d="M1206.24,-361.13C1223.93,-363.55 1243.2,-366.03 1261,-368 1395.34,-382.9 1431.75,-366.08 1564,-394 1573.46,-396 1583.33,-398.74 1592.84,-401.75"/>
<polygon fill="black" stroke="black" points="1591.99,-405.16 1602.59,-404.96 1594.18,-398.51 1591.99,-405.16"/>
<text text-anchor="middle" x="1412.5" y="-397.8" font-family="Times,serif" font-size="14.00">debit/credit wallet</text>
</g>
<!-- trading_service&#45;&gt;portfolio_service -->
<g id="edge10" class="edge">
<title>trading_service&#45;&gt;portfolio_service</title>
<path fill="none" stroke="black" d="M1206.06,-351.36C1288.41,-349.91 1437.53,-345.21 1564,-330 1566.53,-329.7 1569.1,-329.36 1571.69,-329"/>
<polygon fill="black" stroke="black" points="1572.37,-332.44 1581.75,-327.5 1571.34,-325.51 1572.37,-332.44"/>
<text text-anchor="middle" x="1412.5" y="-352.8" font-family="Times,serif" font-size="14.00">update holdings (PATCH /portfolio/update)</text>
</g>
<!-- portfolio_service&#45;&gt;trading_service -->
<g id="edge11" class="edge">
<title>portfolio_service&#45;&gt;trading_service</title>
<path fill="none" stroke="black" d="M1581.77,-306.45C1504.1,-299.29 1372.27,-292.14 1261,-311 1238.38,-314.83 1214.31,-322.54 1193.88,-330.25"/>
<polygon fill="black" stroke="black" points="1192.53,-327.02 1184.47,-333.89 1195.06,-333.54 1192.53,-327.02"/>
<text text-anchor="middle" x="1412.5" y="-314.8" font-family="Times,serif" font-size="14.00">prices (POST /trade/prices)</text>
</g>
</g>
</svg>
